<svg xmlns="http://www.w3.org/2000/svg" viewBox="0 0 1400 1400"><defs><style>.cls-1{fill:#edf8ff;}.cls-2{fill:#d6efff;}.cls-3{fill:#0096e6;}.cls-4{fill:#fff;}</style></defs><title>rock-paper-scissors-vector-illustration</title><g id="Background"><rect class="cls-1" width="1400" height="1400"/></g><g id="Design"><path class="cls-2" d="M831.23,693.12a24.49,24.49,0,0,0-4.82,34.31L907.35,836,799.13,755.27a24.5,24.5,0,1,0-29.49,39.14L851.32,856a26,26,0,0,0-16.44,44.39L851.51,917a26,26,0,0,0-36.84,36.84l50,50a103.41,103.41,0,0,0,55.7,28.78l62.57,62.56L1095,983l-62.72-62.72c-3.43-19.12-12.8-38-29.07-54.26-59.13-59.13-39.37-39.37-137.67-168.09A24.5,24.5,0,0,0,831.23,693.12Z"/><path class="cls-3" d="M962.6,986.35l-9.09-9.09a47.63,47.63,0,0,1,0-67.38l5.87,5.87a39.33,39.33,0,0,0,0,55.64l9.09,9.09Z"/><path class="cls-2" d="M814.67,917h0a26,26,0,0,0,0,36.84l22.5,22.5a26,26,0,0,0,36.84,0h0a26,26,0,0,0,0-36.84L851.51,917A26,26,0,0,0,814.67,917Z"/><path class="cls-2" d="M834.88,863.51h0a26,26,0,0,0,0,36.84L874,939.49a26.06,26.06,0,0,0,36.84,0h0a26.06,26.06,0,0,0,0-36.85l-39.14-39.13A26,26,0,0,0,834.88,863.51Z"/><path class="cls-3" d="M855.59,988.12a30,30,0,0,1-21.36-8.85l-22.5-22.5a30.23,30.23,0,0,1,0-42.72h0a30.23,30.23,0,0,1,42.72,0l22.5,22.5a30.21,30.21,0,0,1-21.36,51.57Zm-22.5-74.61a21.76,21.76,0,0,0-15.49,6.42h0a21.91,21.91,0,0,0,0,31l22.5,22.5a21.9,21.9,0,1,0,31-31l-22.49-22.49A21.76,21.76,0,0,0,833.09,913.51Z"/><path class="cls-3" d="M892.43,951.25a30.12,30.12,0,0,1-21.36-8.83l-39.13-39.13a30.21,30.21,0,0,1,42.72-42.72l39.13,39.14a30.19,30.19,0,0,1-21.36,51.54ZM853.3,860a21.9,21.9,0,0,0-15.49,37.39L877,936.55a21.9,21.9,0,0,0,31-31l-39.13-39.14A21.79,21.79,0,0,0,853.3,860Z"/><path class="cls-2" d="M1003.22,866h0a50.83,50.83,0,0,0-71.9,0l-56,56a13.47,13.47,0,0,0,0,19.06h0a37.37,37.37,0,0,0,52.84,0l28.26-28.26"/><path class="cls-2" d="M1013,875.82h0a50.84,50.84,0,0,0-71.91,0l-56,56c-5.26,5.26-1.35,9.88,3.92,15.14l-2,2c14.59,14.59,26.51,6.76,41.1-7.83l28.26-28.26"/><path class="cls-3" d="M901.76,956.17A41.22,41.22,0,0,1,872.4,944a17.62,17.62,0,0,1,0-24.92l56-56a55,55,0,0,1,77.78,0l-5.87,5.87a46.69,46.69,0,0,0-66,0l-56,56a9.32,9.32,0,0,0,0,13.18,33.22,33.22,0,0,0,47,0l28.26-28.25,5.87,5.87L931.12,944A41.22,41.22,0,0,1,901.76,956.17Z"/><path class="cls-3" d="M982.9,1099.28a4.15,4.15,0,0,1-2.94-1.21l-61.86-61.86a106.87,106.87,0,0,1-56.41-29.48l-50-50a30.19,30.19,0,0,1,22.15-51.54l-1.94-1.94A30.19,30.19,0,0,1,841.82,854l-74.68-56.28A28.66,28.66,0,0,1,801.63,752L887,815.62l-63.9-85.71a28.65,28.65,0,0,1,45.78-34.47c24.62,32.24,42,55.43,54.75,72.36C962,819,962,819,1006.16,863.09a105,105,0,0,1,29.13,54.32L1098,980.08a4.15,4.15,0,0,1,0,5.87L985.83,1098.07A4.13,4.13,0,0,1,982.9,1099.28ZM833.09,913.51A21.91,21.91,0,0,0,817.6,950.9l50,50a98.66,98.66,0,0,0,53.27,27.4,4.11,4.11,0,0,1,2.22,1.15l59.85,59.85L1089.14,983l-60.62-60.62a4.1,4.1,0,0,1-1.14-2.16A96.83,96.83,0,0,0,1000.29,869c-44.53-44.53-44.53-44.53-83.32-96.18-12.71-16.93-30.11-40.1-54.72-72.33a20.35,20.35,0,1,0-32.53,24.47l81,108.58a4.16,4.16,0,0,1-5.82,5.81L796.65,758.6a20.35,20.35,0,1,0-24.51,32.49l81.68,61.56a4.15,4.15,0,0,1-2.19,7.45,21.9,21.9,0,0,0-13.82,37.32l16.64,16.63a4.15,4.15,0,0,1-5.87,5.87A21.79,21.79,0,0,0,833.09,913.51Z"/><rect class="cls-4" x="987.57" y="926.68" width="71.96" height="192.36" rx="2" transform="translate(1023.07 -424.17) rotate(45)"/><path class="cls-3" d="M1007,1074.81h0a3.33,3.33,0,0,1,0,4.72h0a3.34,3.34,0,0,1-4.72,0h0a3.34,3.34,0,0,1,0-4.72h0A3.34,3.34,0,0,1,1007,1074.81Z"/><path class="cls-3" d="M995.18,1063a3.33,3.33,0,0,1,0,4.72h0a3.34,3.34,0,0,1-4.72-4.72h0A3.34,3.34,0,0,1,995.18,1063Z"/><path class="cls-3" d="M1018.78,1063h0a3.34,3.34,0,0,1-4.72,4.72h0a3.34,3.34,0,1,1,4.72-4.72Z"/><path class="cls-3" d="M1007,1051.21a3.34,3.34,0,1,1-4.72,0A3.33,3.33,0,0,1,1007,1051.21Z"/><path class="cls-3" d="M995.18,1051.21a3.34,3.34,0,1,1-4.72,0A3.33,3.33,0,0,1,995.18,1051.21Z"/><path class="cls-3" d="M1007,1063a3.34,3.34,0,1,1-4.72,0A3.34,3.34,0,0,1,1007,1063Z"/><path class="cls-3" d="M983.38,1098.41h0a3.34,3.34,0,0,1,0,4.72h0a3.33,3.33,0,0,1-4.72,0h0a3.34,3.34,0,0,1,0-4.72h0A3.34,3.34,0,0,1,983.38,1098.41Z"/><path class="cls-3" d="M971.58,1086.61a3.34,3.34,0,0,1,0,4.72h0a3.34,3.34,0,0,1-4.72-4.72h0A3.34,3.34,0,0,1,971.58,1086.61Z"/><path class="cls-3" d="M995.18,1086.61h0a3.34,3.34,0,0,1-4.72,4.72h0a3.34,3.34,0,1,1,4.72-4.72Z"/><path class="cls-3" d="M983.38,1074.81a3.34,3.34,0,1,1-4.72,0A3.34,3.34,0,0,1,983.38,1074.81Z"/><path class="cls-3" d="M971.58,1074.81a3.34,3.34,0,1,1-4.72,0A3.34,3.34,0,0,1,971.58,1074.81Z"/><path class="cls-3" d="M983.38,1086.61a3.34,3.34,0,1,1-4.72,0A3.34,3.34,0,0,1,983.38,1086.61Z"/><path class="cls-3" d="M983.38,1063a3.34,3.34,0,1,1-4.72,0A3.34,3.34,0,0,1,983.38,1063Z"/><path class="cls-3" d="M995.18,1074.81a3.34,3.34,0,1,1-4.72,0A3.34,3.34,0,0,1,995.18,1074.81Z"/><path class="cls-3" d="M983.38,1051.21h0a3.33,3.33,0,0,1,0,4.72h0a3.34,3.34,0,0,1-4.72,0h0a3.34,3.34,0,0,1,0-4.72h0A3.34,3.34,0,0,1,983.38,1051.21Z"/><path class="cls-3" d="M971.58,1039.41a3.33,3.33,0,0,1,0,4.72h0a3.34,3.34,0,0,1-4.72-4.72h0A3.34,3.34,0,0,1,971.58,1039.41Z"/><path class="cls-3" d="M995.18,1039.41h0a3.34,3.34,0,0,1-4.72,4.72h0a3.34,3.34,0,1,1,4.72-4.72Z"/><path class="cls-3" d="M978.66,1032.33a3.34,3.34,0,1,1,4.72,0A3.34,3.34,0,0,1,978.66,1032.33Z"/><path class="cls-3" d="M983.38,1039.41a3.34,3.34,0,1,1-4.72,0A3.34,3.34,0,0,1,983.38,1039.41Z"/><path class="cls-3" d="M959.78,1074.81h0a3.34,3.34,0,0,1,0,4.72h0a3.33,3.33,0,0,1-4.72,0h0a3.34,3.34,0,0,1,0-4.72h0A3.34,3.34,0,0,1,959.78,1074.81Z"/><path class="cls-3" d="M948,1063a3.34,3.34,0,0,1,0,4.72h0a3.34,3.34,0,0,1-4.72-4.72h0A3.34,3.34,0,0,1,948,1063Z"/><path class="cls-3" d="M971.58,1063h0a3.34,3.34,0,0,1-4.72,4.72h0a3.34,3.34,0,1,1,4.72-4.72Z"/><path class="cls-3" d="M959.78,1051.21a3.34,3.34,0,1,1-4.72,0A3.34,3.34,0,0,1,959.78,1051.21Z"/><path class="cls-3" d="M959.78,1063a3.34,3.34,0,1,1-4.72,0A3.34,3.34,0,0,1,959.78,1063Z"/><path class="cls-3" d="M971.58,1051.21a3.34,3.34,0,1,1-4.72,0A3.34,3.34,0,0,1,971.58,1051.21Z"/><path class="cls-3" d="M981,1119.31a6.89,6.89,0,0,1-4.89-2h0l-47-47a6.92,6.92,0,0,1,0-9.79l132.1-132.1a6.92,6.92,0,0,1,9.79,0l47,47a6.93,6.93,0,0,1,0,9.78L985.87,1117.29A6.89,6.89,0,0,1,981,1119.31Zm1-7.9h0Zm-46-46,45,45,130.15-130.15-45-45Z"/><circle class="cls-3" cx="1070.07" cy="976.33" r="8.3"/><path class="cls-2" d="M833.33,503.26h0a40.72,40.72,0,0,1-56.59.79L757.43,485.9V642c0,13.41-10,25.83-24.52,25.83a24.52,24.52,0,0,1-24.52-24.52v22.17c0,14.09-10.46,27.55-26.15,27.55a26.16,26.16,0,0,1-26.15-26.16v1.56c0,13.29-10,24.6-24.52,24.6a24.52,24.52,0,0,1-24.52-24.52V627.12a21.49,21.49,0,0,1-21.49,21.48c-12.89,0-21.49-10.55-21.49-22.35V449.86a91.9,91.9,0,0,1,21.36-58.95V303.23H744v86.31a143.75,143.75,0,0,1,16.62,15.68l73.13,79.36A13.44,13.44,0,0,1,833.33,503.26Z"/><rect class="cls-3" x="602.9" y="543" width="8.3" height="84.12"/><rect class="cls-3" x="651.94" y="543" width="8.3" height="123.82"/><rect class="cls-3" x="704.24" y="543" width="8.3" height="100.26"/><path class="cls-3" d="M757.43,490.05H707.74A63.09,63.09,0,0,1,660,468.18l6.29-5.43a54.77,54.77,0,0,0,41.48,19h49.69Z"/><path class="cls-3" d="M682.24,697.13a30.32,30.32,0,0,1-25.73-14.31,28.11,28.11,0,0,1-24.94,14.31,28.7,28.7,0,0,1-28.67-28.67V646a25.55,25.55,0,0,1-17.34,6.77c-14.38,0-25.64-11.65-25.64-26.51V449.86c0-23.95,7.72-46.18,21.77-62.78V303.61a4.15,4.15,0,0,1,4.16-4.15H744.4a4.15,4.15,0,0,1,4.16,4.15v83.28c3,3,10.7,10.64,15.13,15.55l73.11,79.32a17.58,17.58,0,0,1-.54,24.45,44.69,44.69,0,0,1-62.36.86L761.58,495.5V642c0,16.81-12.59,30-28.67,30a28.57,28.57,0,0,1-20.36-8.51v2C712.55,685.27,697.14,697.13,682.24,697.13Zm-26.15-34.46a4.15,4.15,0,0,1,4.15,4.15,22,22,0,0,0,22,22c13.77,0,22-11.9,22-23.4V643.26a4.16,4.16,0,0,1,8.31,0,20.39,20.39,0,0,0,20.36,20.37c12.75,0,20.37-11,20.37-21.68V485.9a4.15,4.15,0,0,1,7-3L779.59,501a36.42,36.42,0,0,0,50.82-.7,9.29,9.29,0,0,0,.28-12.93L757.55,408c-5.33-5.91-15.95-16.34-16-16.45a4.14,4.14,0,0,1-1.25-3V307.76H590v80.87a4.14,4.14,0,0,1-1,2.74c-13.37,15.2-20.74,36-20.74,58.49V626.25c0,8.82,6.08,18.2,17.34,18.2a17.36,17.36,0,0,0,17.34-17.33,4.15,4.15,0,1,1,8.3,0v41.34a20.4,20.4,0,0,0,20.37,20.37,20.13,20.13,0,0,0,14.7-6.05,20.62,20.62,0,0,0,5.67-14.4v-1.56A4.15,4.15,0,0,1,656.09,662.67Z"/><rect class="cls-4" x="628.73" y="224.64" width="71.96" height="192.36" rx="2" transform="translate(343.89 985.53) rotate(-90)"/><path class="cls-3" d="M616.26,295.8h0a3.33,3.33,0,0,0-3.34-3.34h0a3.33,3.33,0,0,0-3.33,3.34h0a3.33,3.33,0,0,0,3.33,3.33h0A3.33,3.33,0,0,0,616.26,295.8Z"/><path class="cls-3" d="M616.26,312.48a3.33,3.33,0,0,0-3.34-3.33h0a3.34,3.34,0,0,0,0,6.67h0A3.33,3.33,0,0,0,616.26,312.48Z"/><path class="cls-3" d="M633,295.8h0a3.34,3.34,0,1,0-6.68,0h0a3.34,3.34,0,0,0,6.68,0Z"/><path class="cls-3" d="M633,312.48a3.34,3.34,0,1,0-3.34,3.34A3.33,3.33,0,0,0,633,312.48Z"/><path class="cls-3" d="M624.61,320.83a3.34,3.34,0,1,0-3.34,3.34A3.34,3.34,0,0,0,624.61,320.83Z"/><path class="cls-3" d="M624.61,304.14a3.34,3.34,0,1,0-3.34,3.34A3.35,3.35,0,0,0,624.61,304.14Z"/><path class="cls-3" d="M582.88,295.8h0a3.33,3.33,0,0,0-3.33-3.34h0a3.33,3.33,0,0,0-3.34,3.34h0a3.33,3.33,0,0,0,3.34,3.33h0A3.33,3.33,0,0,0,582.88,295.8Z"/><path class="cls-3" d="M582.88,312.48a3.33,3.33,0,0,0-3.33-3.33h0a3.34,3.34,0,1,0,0,6.67h0A3.33,3.33,0,0,0,582.88,312.48Z"/><path class="cls-3" d="M599.57,295.8h0a3.34,3.34,0,1,0-6.67,0h0a3.34,3.34,0,0,0,6.67,0Z"/><path class="cls-3" d="M599.57,312.48a3.34,3.34,0,1,0-3.34,3.34A3.33,3.33,0,0,0,599.57,312.48Z"/><path class="cls-3" d="M591.23,320.83a3.34,3.34,0,1,0-3.34,3.34A3.34,3.34,0,0,0,591.23,320.83Z"/><path class="cls-3" d="M591.23,304.14a3.34,3.34,0,1,0-3.34,3.34A3.35,3.35,0,0,0,591.23,304.14Z"/><path class="cls-3" d="M607.92,320.83a3.34,3.34,0,1,0-3.34,3.34A3.34,3.34,0,0,0,607.92,320.83Z"/><path class="cls-3" d="M607.92,304.14a3.34,3.34,0,1,0-3.34,3.34A3.35,3.35,0,0,0,607.92,304.14Z"/><path class="cls-3" d="M616.26,329.17h0a3.34,3.34,0,0,0-3.34-3.34h0a3.34,3.34,0,0,0-3.33,3.34h0a3.33,3.33,0,0,0,3.33,3.34h0A3.33,3.33,0,0,0,616.26,329.17Z"/><path class="cls-3" d="M616.26,345.86a3.34,3.34,0,0,0-3.34-3.34h0a3.34,3.34,0,0,0,0,6.68h0A3.34,3.34,0,0,0,616.26,345.86Z"/><path class="cls-3" d="M633,329.17h0a3.34,3.34,0,1,0-6.68,0h0a3.34,3.34,0,0,0,6.68,0Z"/><path class="cls-3" d="M626.27,345.86a3.34,3.34,0,1,0,3.34-3.34A3.35,3.35,0,0,0,626.27,345.86Z"/><path class="cls-3" d="M624.61,337.52a3.34,3.34,0,1,0-3.34,3.34A3.34,3.34,0,0,0,624.61,337.52Z"/><path class="cls-3" d="M582.88,329.17h0a3.34,3.34,0,0,0-3.33-3.34h0a3.34,3.34,0,0,0-3.34,3.34h0a3.33,3.33,0,0,0,3.34,3.34h0A3.33,3.33,0,0,0,582.88,329.17Z"/><path class="cls-3" d="M582.88,345.86a3.34,3.34,0,0,0-3.33-3.34h0a3.34,3.34,0,1,0,0,6.68h0A3.34,3.34,0,0,0,582.88,345.86Z"/><path class="cls-3" d="M599.57,329.17h0a3.34,3.34,0,1,0-6.67,0h0a3.34,3.34,0,1,0,6.67,0Z"/><path class="cls-3" d="M599.57,345.86a3.34,3.34,0,1,0-3.34,3.34A3.34,3.34,0,0,0,599.57,345.86Z"/><path class="cls-3" d="M591.23,337.52a3.34,3.34,0,1,0-3.34,3.34A3.34,3.34,0,0,0,591.23,337.52Z"/><path class="cls-3" d="M607.92,337.52a3.34,3.34,0,1,0-3.34,3.34A3.34,3.34,0,0,0,607.92,337.52Z"/><path class="cls-3" d="M758.12,361H571.3a6.93,6.93,0,0,1-6.92-6.92V287.6a6.93,6.93,0,0,1,6.92-6.91H758.12A6.92,6.92,0,0,1,765,287.6V354A6.92,6.92,0,0,1,758.12,361Zm-185.44-8.3H756.74V289H572.68Z"/><circle class="cls-3" cx="730.51" cy="320.82" r="8.3"/><path class="cls-2" d="M588.7,969.23l52.17-52.18a25.53,25.53,0,0,0-36.1-36.1l-1.62,1.61A30.11,30.11,0,0,0,560.57,840l.23-.23a29.78,29.78,0,0,0-42.12-42.12L493.12,823.2a28,28,0,1,0-39.57-39.57L390,847.19c-21.84,21.83-17.91,51.86-27.78,78-8,21.21-72.39,28.23-54.21,46.41l100.7,32.85c-6.9,104.35,67.87,34.11,67.87,34.11s69.24-8.44,97.26-36.46A51,51,0,0,0,588.7,969.23Z"/><path class="cls-3" d="M447.44,861.44h0A32,32,0,0,1,424.72,852h0a32.13,32.13,0,0,1,0-45.44l25.89-25.89a31.92,31.92,0,0,1,22.72-9.41h0a32.13,32.13,0,0,1,22.72,54.85L470.16,852A31.9,31.9,0,0,1,447.44,861.44Zm25.89-81.85a23.68,23.68,0,0,0-16.85,7l-25.89,25.89a23.85,23.85,0,0,0,0,33.7h0a23.82,23.82,0,0,0,33.69,0l25.89-25.89a23.82,23.82,0,0,0-16.85-40.67Z"/><path class="cls-2" d="M476.93,853.54l86.58,86.59a51.09,51.09,0,0,1,9.93,58.17l2.35,1.84a51.12,51.12,0,0,0,0-72.29l-86.58-86.59a10,10,0,0,0-14.16,0l-4.43,4.43a46,46,0,0,0-4.9,5.89A10,10,0,0,1,476.93,853.54Z"/><path class="cls-3" d="M576.77,1005l-5.87-5.87a47,47,0,0,0,0-66.42l-86.58-86.58a5.82,5.82,0,0,0-4.15-1.72h0a5.82,5.82,0,0,0-4.14,1.72l-4.43,4.42a40.21,40.21,0,0,0,0,56.87l43,43-5.87,5.87-43-42.95a48.53,48.53,0,0,1,0-68.62l4.43-4.42a14,14,0,0,1,10-4.15h0a14.06,14.06,0,0,1,10,4.15l86.58,86.58A55.33,55.33,0,0,1,576.77,1005Z"/><rect class="cls-3" x="514.36" y="854.97" width="54.13" height="8.3" transform="translate(-448.91 634.48) rotate(-45)"/><path class="cls-3" d="M414.42,1101.16a4.14,4.14,0,0,1-2.93-1.22L299.37,987.82a4.14,4.14,0,0,1,0-5.87l58.47-58.47c.38-31.74,11.24-61.25,29.21-79.22l63.56-63.57a31.92,31.92,0,0,1,22.72-9.41h0a32.13,32.13,0,0,1,32.13,32.13c0,.54,0,1.08,0,1.61l10.32-10.32a33.92,33.92,0,0,1,56.5,33.69,34.27,34.27,0,0,1,43.87,32.88,34.72,34.72,0,0,1-1.22,9.13A29.68,29.68,0,0,1,643.81,920l-51.09,51.09a55.21,55.21,0,0,1-16,33.95,125.79,125.79,0,0,1-101.13,36.63l-58.28,58.28A4.15,4.15,0,0,1,414.42,1101.16ZM308.18,984.89l106.24,106.24,56.74-56.73a4.16,4.16,0,0,1,3.39-1.2,117.5,117.5,0,0,0,96.35-34A46.86,46.86,0,0,0,584.55,969a4.23,4.23,0,0,1,1.21-2.68l52.18-52.17a21.38,21.38,0,0,0-30.24-30.24l-1.61,1.62h0a4.15,4.15,0,1,1-5.87-5.87h0a26,26,0,0,0-36.65-36.77l-.06.06a4.15,4.15,0,0,1-5.87-5.87h0l.06-.06.17-.17a25.63,25.63,0,0,0-36.25-36.24L496.09,826.1l0,0a4.15,4.15,0,0,1-5.87-5.87h0a23.83,23.83,0,0,0-33.7-33.7l-63.56,63.57c-16.77,16.77-26.79,44.84-26.79,75.08a4.18,4.18,0,0,1-1.21,2.94ZM362,925.21h0Z"/><rect class="cls-3" x="556.94" y="897.55" width="54.13" height="8.3" transform="translate(-466.55 677.06) rotate(-45)"/><path class="cls-3" d="M434.05,966.1l-5.87-5.87,10.31-10.31a53.45,53.45,0,0,1,75.58,0l-5.87,5.87a45.15,45.15,0,0,0-63.84,0Z"/><rect class="cls-4" x="340.47" y="926.68" width="71.96" height="192.36" rx="2" transform="translate(1365.92 1479.93) rotate(135)"/><path class="cls-3" d="M324.5,1006.29h0a3.33,3.33,0,0,1-4.72,0h0a3.34,3.34,0,0,1,0-4.72h0a3.34,3.34,0,0,1,4.72,0h0A3.34,3.34,0,0,1,324.5,1006.29Z"/><path class="cls-3" d="M336.3,994.49a3.33,3.33,0,0,1-4.72,0h0a3.34,3.34,0,0,1,4.72-4.72h0A3.34,3.34,0,0,1,336.3,994.49Z"/><path class="cls-3" d="M336.3,1018.09h0a3.34,3.34,0,0,1-4.72-4.72h0a3.34,3.34,0,0,1,4.72,4.72Z"/><path class="cls-3" d="M348.1,1006.29a3.34,3.34,0,1,1,0-4.72A3.33,3.33,0,0,1,348.1,1006.29Z"/><path class="cls-3" d="M348.1,994.49a3.34,3.34,0,1,1,0-4.72A3.33,3.33,0,0,1,348.1,994.49Z"/><path class="cls-3" d="M336.3,1006.29a3.34,3.34,0,1,1,0-4.72A3.34,3.34,0,0,1,336.3,1006.29Z"/><path class="cls-3" d="M300.9,982.69h0a3.34,3.34,0,0,1-4.72,0h0a3.34,3.34,0,0,1,0-4.72h0a3.34,3.34,0,0,1,4.72,0h0A3.34,3.34,0,0,1,300.9,982.69Z"/><path class="cls-3" d="M312.7,970.89a3.34,3.34,0,0,1-4.72,0h0a3.34,3.34,0,0,1,4.72-4.72h0A3.34,3.34,0,0,1,312.7,970.89Z"/><path class="cls-3" d="M312.7,994.49h0a3.34,3.34,0,0,1-4.72-4.72h0a3.34,3.34,0,1,1,4.72,4.72Z"/><path class="cls-3" d="M324.5,982.69a3.34,3.34,0,1,1,0-4.72A3.34,3.34,0,0,1,324.5,982.69Z"/><path class="cls-3" d="M324.5,970.89a3.34,3.34,0,1,1,0-4.72A3.34,3.34,0,0,1,324.5,970.89Z"/><path class="cls-3" d="M312.7,982.69a3.34,3.34,0,1,1,0-4.72A3.34,3.34,0,0,1,312.7,982.69Z"/><path class="cls-3" d="M336.3,982.69a3.34,3.34,0,1,1,0-4.72A3.34,3.34,0,0,1,336.3,982.69Z"/><path class="cls-3" d="M324.5,994.49a3.34,3.34,0,1,1,0-4.72A3.34,3.34,0,0,1,324.5,994.49Z"/><path class="cls-3" d="M348.1,982.69h0a3.33,3.33,0,0,1-4.72,0h0a3.34,3.34,0,0,1,0-4.72h0a3.34,3.34,0,0,1,4.72,0h0A3.34,3.34,0,0,1,348.1,982.69Z"/><path class="cls-3" d="M359.9,970.89a3.33,3.33,0,0,1-4.72,0h0a3.34,3.34,0,1,1,4.72-4.72h0A3.34,3.34,0,0,1,359.9,970.89Z"/><path class="cls-3" d="M359.9,994.49h0a3.34,3.34,0,1,1-4.72-4.72h0a3.34,3.34,0,0,1,4.72,4.72Z"/><path class="cls-3" d="M367,978a3.34,3.34,0,1,1,0,4.72A3.34,3.34,0,0,1,367,978Z"/><path class="cls-3" d="M359.9,982.69a3.34,3.34,0,1,1,0-4.72A3.34,3.34,0,0,1,359.9,982.69Z"/><path class="cls-3" d="M324.5,959.09h0a3.34,3.34,0,0,1-4.72,0h0a3.34,3.34,0,0,1,0-4.72h0a3.34,3.34,0,0,1,4.72,0h0A3.34,3.34,0,0,1,324.5,959.09Z"/><path class="cls-3" d="M336.3,947.29a3.34,3.34,0,0,1-4.72,0h0a3.34,3.34,0,0,1,4.72-4.72h0A3.34,3.34,0,0,1,336.3,947.29Z"/><path class="cls-3" d="M336.3,970.89h0a3.34,3.34,0,0,1-4.72-4.72h0a3.34,3.34,0,0,1,4.72,4.72Z"/><path class="cls-3" d="M348.1,959.09a3.34,3.34,0,1,1,0-4.72A3.34,3.34,0,0,1,348.1,959.09Z"/><path class="cls-3" d="M336.3,959.09a3.34,3.34,0,1,1,0-4.72A3.34,3.34,0,0,1,336.3,959.09Z"/><path class="cls-3" d="M348.1,970.89a3.34,3.34,0,1,1,0-4.72A3.34,3.34,0,0,1,348.1,970.89Z"/><path class="cls-3" d="M419,1119.31a6.88,6.88,0,0,1-4.89-2L282,985.18a6.93,6.93,0,0,1,0-9.78l47-47a6.93,6.93,0,0,1,9.79,0l132.1,132.1a6.92,6.92,0,0,1,0,9.79l-47,47A6.88,6.88,0,0,1,419,1119.31Zm-130.15-139L419,1110.44l45-45L333.89,935.28Zm-1,1h0Z"/><circle class="cls-3" cx="422.98" cy="1069.39" r="8.3"/><path class="cls-3" d="M377.33,815.66A315.13,315.13,0,0,1,501,533.92l2.49,3.32a311,311,0,0,0-122,278Z"/><polygon class="cls-3" points="509.16 556.23 526.87 518.82 485.61 522.18 509.16 556.23"/><path class="cls-3" d="M717.45,1099.56q-4.28,0-8.57-.11a317.59,317.59,0,0,1-135.94-34.9l1.9-3.69A313.31,313.31,0,0,0,709,1095.3a307.49,307.49,0,0,0,140.13-29.46c4-1.91,8.07-3.91,12-5.94l1.93,3.68c-3.94,2.06-8,4.08-12.12,6A311.26,311.26,0,0,1,717.45,1099.56Z"/><polygon class="cls-3" points="589.47 1047.36 548.07 1047.83 569.17 1083.45 589.47 1047.36"/><path class="cls-3" d="M1005.49,784.25l-4.15,0a310.82,310.82,0,0,0-146.25-266.1l2.19-3.53a315,315,0,0,1,148.21,269.67Z"/><polygon class="cls-3" points="982.79 777.16 1001.72 813.98 1024.14 779.18 982.79 777.16"/></g><g id="Text"><path class="cls-3" d="M861,1174.16a13.35,13.35,0,0,0-3.38-2.27,35.92,35.92,0,0,0-3.84-1.57c-1.3-.44-2.58-.86-3.82-1.25a21.52,21.52,0,0,1-3.28-1.32,7.12,7.12,0,0,1-2.26-1.74,3.7,3.7,0,0,1-.82-2.47,5.68,5.68,0,0,1,.41-2.18,4.39,4.39,0,0,1,1.25-1.69,6.26,6.26,0,0,1,2.1-1.12,9.77,9.77,0,0,1,3-.4,10.15,10.15,0,0,1,3.25.46,15,15,0,0,1,2.43,1.06c.69.38,1.3.74,1.8,1.06a2.42,2.42,0,0,0,2.72.18,3.28,3.28,0,0,0,.87-1l2.17-4.11-.14-.13a16.9,16.9,0,0,0-5.79-3.53,21.32,21.32,0,0,0-7.4-1.25,17.23,17.23,0,0,0-6.36,1.1,14.15,14.15,0,0,0-4.67,2.94,12.67,12.67,0,0,0-3.89,9.07,13.59,13.59,0,0,0,.91,5.26,10.53,10.53,0,0,0,2.4,3.57,12.36,12.36,0,0,0,3.38,2.31,33.07,33.07,0,0,0,3.81,1.5c1.26.41,2.54.8,3.79,1.15a17.28,17.28,0,0,1,3.27,1.27,6.89,6.89,0,0,1,2.26,1.81,4.26,4.26,0,0,1,.83,2.72,5.88,5.88,0,0,1-1.86,4.67,8,8,0,0,1-5.36,1.63,10.94,10.94,0,0,1-3.89-.62,17.33,17.33,0,0,1-2.86-1.39c-.82-.52-1.54-1-2.13-1.4a2.63,2.63,0,0,0-3-.36,3,3,0,0,0-.89.82l-2.55,4.16.14.14a17.09,17.09,0,0,0,3,2.45,21.41,21.41,0,0,0,3.62,1.89,22.35,22.35,0,0,0,4,1.2,21.6,21.6,0,0,0,4.26.43,18.41,18.41,0,0,0,6.7-1.15,14.75,14.75,0,0,0,5-3.16,13.43,13.43,0,0,0,3.1-4.7,15.82,15.82,0,0,0,1-5.78,11.8,11.8,0,0,0-.9-4.85A10.41,10.41,0,0,0,861,1174.16Z"/><path class="cls-3" d="M902.69,1185.61a1.88,1.88,0,0,0-.83.2,3.12,3.12,0,0,0-.7.48,13.1,13.1,0,0,1-2,1.54,11.47,11.47,0,0,1-2.15,1,13.16,13.16,0,0,1-2.49.57,21.67,21.67,0,0,1-3,.19,13.11,13.11,0,0,1-5.24-1,12.13,12.13,0,0,1-4.22-3,14.79,14.79,0,0,1-2.85-4.88,19.48,19.48,0,0,1-1-6.64,20.55,20.55,0,0,1,1-6.6,14,14,0,0,1,2.74-4.88,11.61,11.61,0,0,1,4.2-3,13.56,13.56,0,0,1,5.41-1,15.53,15.53,0,0,1,3.06.26,14.12,14.12,0,0,1,2.33.63,11.58,11.58,0,0,1,1.76.84c.52.31,1,.59,1.36.84a12.08,12.08,0,0,0,1.1.67,2.37,2.37,0,0,0,1.08.29,2.1,2.1,0,0,0,1.22-.32,3.08,3.08,0,0,0,.69-.71l2.91-4-.15-.15a21,21,0,0,0-6.54-4.27,22.48,22.48,0,0,0-8.79-1.63,23.44,23.44,0,0,0-9.09,1.71,20.9,20.9,0,0,0-7.07,4.78,21.63,21.63,0,0,0-4.6,7.32,26,26,0,0,0-1.63,9.35,27.51,27.51,0,0,0,1.52,9.29,21,21,0,0,0,4.38,7.34,20,20,0,0,0,6.89,4.8,22.81,22.81,0,0,0,9.07,1.73,23.63,23.63,0,0,0,9.67-1.82,18.44,18.44,0,0,0,6.8-5.25l.14-.17-3.44-3.73A1.92,1.92,0,0,0,902.69,1185.61Z"/><rect class="cls-3" x="913.29" y="1151.35" width="8.87" height="45.33"/><path class="cls-3" d="M956.24,1174.16a13.35,13.35,0,0,0-3.38-2.27,35.92,35.92,0,0,0-3.84-1.57c-1.31-.44-2.6-.87-3.82-1.25a21.94,21.94,0,0,1-3.28-1.32,7.23,7.23,0,0,1-2.26-1.74,3.75,3.75,0,0,1-.82-2.47,5.72,5.72,0,0,1,.41-2.18,4.39,4.39,0,0,1,1.25-1.69,6.26,6.26,0,0,1,2.1-1.12,9.77,9.77,0,0,1,3-.4,10.15,10.15,0,0,1,3.25.46,15,15,0,0,1,2.43,1.06c.68.38,1.29.74,1.8,1.06a2.44,2.44,0,0,0,2.73.18,3.15,3.15,0,0,0,.86-1l2.17-4.11-.14-.13a16.81,16.81,0,0,0-5.79-3.53,21.32,21.32,0,0,0-7.4-1.25,17.27,17.27,0,0,0-6.36,1.1,14,14,0,0,0-4.66,2.94,12.56,12.56,0,0,0-3.89,9.07,13.6,13.6,0,0,0,.9,5.26,10.53,10.53,0,0,0,2.4,3.57,12.36,12.36,0,0,0,3.38,2.31,33.07,33.07,0,0,0,3.81,1.5c1.27.41,2.55.8,3.79,1.15a17.28,17.28,0,0,1,3.27,1.27,6.89,6.89,0,0,1,2.26,1.81,4.26,4.26,0,0,1,.83,2.72,5.85,5.85,0,0,1-1.86,4.67,8,8,0,0,1-5.36,1.63,10.94,10.94,0,0,1-3.89-.62,17.33,17.33,0,0,1-2.86-1.39c-.82-.52-1.54-1-2.12-1.4a2.65,2.65,0,0,0-3-.36,3,3,0,0,0-.89.82l-2.55,4.16.14.14a17.09,17.09,0,0,0,3,2.45,21.41,21.41,0,0,0,3.62,1.89,22.35,22.35,0,0,0,4,1.2,21.6,21.6,0,0,0,4.26.43,18.38,18.38,0,0,0,6.7-1.15,14.75,14.75,0,0,0,5-3.16,13.29,13.29,0,0,0,3.1-4.7,15.82,15.82,0,0,0,1.06-5.78,11.79,11.79,0,0,0-.91-4.85A10.52,10.52,0,0,0,956.24,1174.16Z"/><path class="cls-3" d="M990.87,1174.16a13.53,13.53,0,0,0-3.38-2.27,36.79,36.79,0,0,0-3.84-1.57c-1.31-.44-2.58-.86-3.82-1.25a21.52,21.52,0,0,1-3.28-1.32,7,7,0,0,1-2.26-1.74,3.71,3.71,0,0,1-.83-2.47,5.5,5.5,0,0,1,.42-2.18,4.39,4.39,0,0,1,1.25-1.69,6.26,6.26,0,0,1,2.1-1.12,9.77,9.77,0,0,1,3-.4,10.19,10.19,0,0,1,3.25.46,14.49,14.49,0,0,1,2.42,1.06c.7.38,1.31.74,1.81,1.06a2.42,2.42,0,0,0,2.72.18,3.28,3.28,0,0,0,.87-1l2.17-4.11-.14-.13a16.9,16.9,0,0,0-5.79-3.53,21.32,21.32,0,0,0-7.4-1.25,17.23,17.23,0,0,0-6.36,1.1,14.15,14.15,0,0,0-4.67,2.94,12.67,12.67,0,0,0-3.89,9.07,13.59,13.59,0,0,0,.91,5.26,10.51,10.51,0,0,0,2.39,3.57,12.56,12.56,0,0,0,3.39,2.31,32.37,32.37,0,0,0,3.81,1.5c1.26.41,2.54.8,3.79,1.15a17.28,17.28,0,0,1,3.27,1.27,6.89,6.89,0,0,1,2.26,1.81,4.26,4.26,0,0,1,.83,2.72,5.86,5.86,0,0,1-1.87,4.67,8,8,0,0,1-5.35,1.63,11,11,0,0,1-3.9-.62,17.61,17.61,0,0,1-2.85-1.39c-.82-.52-1.54-1-2.13-1.4a2.63,2.63,0,0,0-3-.36,3,3,0,0,0-.89.82l-2.55,4.16.13.14a17.85,17.85,0,0,0,3,2.45,21.9,21.9,0,0,0,3.63,1.89,22.25,22.25,0,0,0,4,1.2,21.78,21.78,0,0,0,4.27.43,18.32,18.32,0,0,0,6.69-1.15,14.69,14.69,0,0,0,5-3.16,13.56,13.56,0,0,0,3.1-4.7,15.82,15.82,0,0,0,1-5.78,11.8,11.8,0,0,0-.9-4.85A10.41,10.41,0,0,0,990.87,1174.16Z"/><path class="cls-3" d="M1041.91,1162.12a21.65,21.65,0,0,0-3.43-4.66,20.76,20.76,0,0,0-4.57-3.55,23,23,0,0,0-5.58-2.25,25.45,25.45,0,0,0-6.48-.8,24.38,24.38,0,0,0-9.36,1.74,21.35,21.35,0,0,0-7.26,4.84,21.81,21.81,0,0,0-4.69,7.36,26.43,26.43,0,0,0,0,18.44,21.77,21.77,0,0,0,4.69,7.35,21.52,21.52,0,0,0,7.26,4.85,26.15,26.15,0,0,0,18.76,0,21.24,21.24,0,0,0,7.24-4.85,21.69,21.69,0,0,0,4.66-7.35,25.47,25.47,0,0,0,1.64-9.22,26.5,26.5,0,0,0-.73-6.32A22.68,22.68,0,0,0,1041.91,1162.12Zm-7.12,18.44a13.88,13.88,0,0,1-2.77,4.87,11.94,11.94,0,0,1-4.36,3,16.31,16.31,0,0,1-11.62,0,12.06,12.06,0,0,1-4.37-3,13.85,13.85,0,0,1-2.79-4.87,22.31,22.31,0,0,1,0-13.08,13.94,13.94,0,0,1,2.79-4.89,12.11,12.11,0,0,1,4.37-3.07,16.45,16.45,0,0,1,11.62,0,11.91,11.91,0,0,1,4.36,3.07,14.06,14.06,0,0,1,2.77,4.89,22.31,22.31,0,0,1,0,13.08Z"/><path class="cls-3" d="M1075.22,1178.19a7.92,7.92,0,0,0-1.07-.84,15.92,15.92,0,0,0,3.75-1.82,13.29,13.29,0,0,0,3.16-2.94,12.67,12.67,0,0,0,2-3.73,13.92,13.92,0,0,0,.68-4.36,13.7,13.7,0,0,0-1-5.32,10.75,10.75,0,0,0-3.16-4.17,15.2,15.2,0,0,0-5.45-2.7,28.6,28.6,0,0,0-7.9-1h-13.92v45.33h8.84v-17.51h3.32a3.77,3.77,0,0,1,1.75.31,2.91,2.91,0,0,1,1.07,1.06l9.42,14.34a3.56,3.56,0,0,0,3.32,1.8h8l-11.48-16.94A7.89,7.89,0,0,0,1075.22,1178.19Zm-5.13-6.08a12.8,12.8,0,0,1-4,.57h-5V1158.3h5.08c3,0,5.27.6,6.71,1.77a6.18,6.18,0,0,1,2.16,5,8.51,8.51,0,0,1-.54,3,6.37,6.37,0,0,1-1.63,2.37A7.78,7.78,0,0,1,1070.09,1172.11Z"/><path class="cls-3" d="M1119.09,1177.54a10.35,10.35,0,0,0-2.39-3.38,13.53,13.53,0,0,0-3.38-2.27,36.79,36.79,0,0,0-3.84-1.57c-1.31-.44-2.58-.86-3.82-1.25a21.11,21.11,0,0,1-3.28-1.32,7,7,0,0,1-2.26-1.74,3.71,3.71,0,0,1-.83-2.47,5.5,5.5,0,0,1,.42-2.18,4.47,4.47,0,0,1,1.24-1.69,6.36,6.36,0,0,1,2.1-1.12,9.84,9.84,0,0,1,3-.4,10.19,10.19,0,0,1,3.25.46,14.49,14.49,0,0,1,2.42,1.06c.71.39,1.31.75,1.8,1.06a2.44,2.44,0,0,0,2.73.18,3.14,3.14,0,0,0,.86-1l2.17-4.11-.13-.13a16.9,16.9,0,0,0-5.79-3.53,21.34,21.34,0,0,0-7.41-1.25,17.21,17.21,0,0,0-6.35,1.1,14.15,14.15,0,0,0-4.67,2.94A12.67,12.67,0,0,0,1091,1164a13.6,13.6,0,0,0,.9,5.26,10.63,10.63,0,0,0,2.4,3.57,12.56,12.56,0,0,0,3.39,2.31,31.7,31.7,0,0,0,3.81,1.5c1.27.41,2.54.8,3.79,1.15a17.28,17.28,0,0,1,3.27,1.27,7.11,7.11,0,0,1,2.26,1.81,4.26,4.26,0,0,1,.83,2.72,5.86,5.86,0,0,1-1.87,4.67,8,8,0,0,1-5.35,1.63,11,11,0,0,1-3.9-.62,17.61,17.61,0,0,1-2.85-1.39c-.83-.52-1.54-1-2.13-1.4a2.63,2.63,0,0,0-3-.36,2.92,2.92,0,0,0-.89.82l-2.55,4.16.13.14a17.46,17.46,0,0,0,3,2.45,21.8,21.8,0,0,0,3.62,1.89,22.59,22.59,0,0,0,4,1.2,21.7,21.7,0,0,0,4.27.43,18.32,18.32,0,0,0,6.69-1.15,14.54,14.54,0,0,0,5-3.16,13.4,13.4,0,0,0,3.09-4.7,15.82,15.82,0,0,0,1.06-5.78A11.63,11.63,0,0,0,1119.09,1177.54Z"/><path class="cls-3" d="M601.77,218.9a15.94,15.94,0,0,0-1.06-5.86,11.87,11.87,0,0,0-3.24-4.62,15.28,15.28,0,0,0-5.52-3,25.82,25.82,0,0,0-7.85-1.07H569.28v45.33h8.84V233.9h6a24.62,24.62,0,0,0,7.72-1.1,15.49,15.49,0,0,0,5.53-3.09,12.74,12.74,0,0,0,3.32-4.75A16.29,16.29,0,0,0,601.77,218.9ZM588,226.33a12.48,12.48,0,0,1-3.92.56h-6V211.3h6a13.25,13.25,0,0,1,3.95.53,7.26,7.26,0,0,1,2.73,1.51,6.36,6.36,0,0,1,1.61,2.39,8.82,8.82,0,0,1,.54,3.17,9.83,9.83,0,0,1-.54,3.34,6.47,6.47,0,0,1-1.63,2.5A7.31,7.31,0,0,1,588,226.33Z"/><path class="cls-3" d="M626.37,204.35h-8.84l-17.7,45-.13.34h6.87a2.94,2.94,0,0,0,1.93-.65,3.2,3.2,0,0,0,1-1.41l3.28-9H631l3.29,9a3.73,3.73,0,0,0,1.1,1.44,3,3,0,0,0,1.93.6h6.81l-17.74-45.17Zm-5,11c.2-.65.41-1.35.6-2.08.21.73.42,1.42.63,2.06.29.92.57,1.72.84,2.37l5.33,14.57H615.18l5.3-14.5C620.74,217.06,621,216.25,621.32,215.33Z"/><path class="cls-3" d="M677,208.42a15.23,15.23,0,0,0-5.51-3,25.89,25.89,0,0,0-7.86-1.07H648.82v45.33h8.84V233.9h6a24.57,24.57,0,0,0,7.72-1.1,15.32,15.32,0,0,0,5.53-3.09,12.63,12.63,0,0,0,3.32-4.75,16.29,16.29,0,0,0,1.1-6.06,15.94,15.94,0,0,0-1-5.86A12,12,0,0,0,677,208.42Zm-9.45,17.91a12.39,12.39,0,0,1-3.92.56h-6V211.3h6a13.27,13.27,0,0,1,4,.53,7.29,7.29,0,0,1,2.72,1.51,6.13,6.13,0,0,1,1.61,2.39,8.82,8.82,0,0,1,.55,3.17,9.83,9.83,0,0,1-.55,3.34,6.33,6.33,0,0,1-1.62,2.5A7.35,7.35,0,0,1,667.56,226.33Z"/><polygon class="cls-3" points="687.82 249.68 716.59 249.68 716.59 242.51 696.69 242.51 696.69 230.34 712.38 230.34 712.38 223.42 696.69 223.42 696.69 211.49 716.59 211.49 716.59 204.35 687.82 204.35 687.82 249.68"/><path class="cls-3" d="M748.33,232.74a7.86,7.86,0,0,0-2.35-2.39,16.11,16.11,0,0,0,3.75-1.82,13.49,13.49,0,0,0,3.16-2.94,12.67,12.67,0,0,0,2-3.73,13.92,13.92,0,0,0,.68-4.36,13.7,13.7,0,0,0-1-5.32,10.68,10.68,0,0,0-3.16-4.17,15.2,15.2,0,0,0-5.45-2.7,29,29,0,0,0-7.9-1H724.09v45.33h8.84V232.17h3.31a3.82,3.82,0,0,1,1.76.31,3,3,0,0,1,1.07,1.06l9.42,14.34a3.55,3.55,0,0,0,3.32,1.8h8Zm-15.4-21.44H738c3,0,5.26.6,6.71,1.78a6.15,6.15,0,0,1,2.16,5,8.3,8.3,0,0,1-.55,3,6.24,6.24,0,0,1-1.62,2.37,7.74,7.74,0,0,1-2.8,1.58,12.74,12.74,0,0,1-4,.57h-5Z"/><path class="cls-3" d="M303,1178.19a8.59,8.59,0,0,0-1.07-.84,16.11,16.11,0,0,0,3.75-1.82,13.29,13.29,0,0,0,3.16-2.94,12.67,12.67,0,0,0,2-3.73,13.92,13.92,0,0,0,.68-4.36,13.74,13.74,0,0,0-1-5.32,10.68,10.68,0,0,0-3.16-4.17,15.28,15.28,0,0,0-5.45-2.7,28.65,28.65,0,0,0-7.9-1H280v45.33h8.84v-17.51h3.31a3.85,3.85,0,0,1,1.76.31,2.91,2.91,0,0,1,1.07,1.06l9.42,14.34a3.55,3.55,0,0,0,3.32,1.8h8l-11.48-16.94A8.2,8.2,0,0,0,303,1178.19Zm-14.12-19.89h5.08c3,0,5.26.6,6.71,1.77a6.18,6.18,0,0,1,2.15,5,8.3,8.3,0,0,1-.54,3,6.24,6.24,0,0,1-1.62,2.37,7.74,7.74,0,0,1-2.8,1.58,12.74,12.74,0,0,1-4,.57h-5Z"/><path class="cls-3" d="M360.23,1162.12a21.65,21.65,0,0,0-3.43-4.66,20.76,20.76,0,0,0-4.57-3.55,23,23,0,0,0-5.58-2.25,25.45,25.45,0,0,0-6.48-.8,24.42,24.42,0,0,0-9.36,1.74,21.35,21.35,0,0,0-7.26,4.84,21.81,21.81,0,0,0-4.69,7.36,26.43,26.43,0,0,0,0,18.44,21.77,21.77,0,0,0,4.69,7.35,21.52,21.52,0,0,0,7.26,4.85,26.15,26.15,0,0,0,18.76,0,21.34,21.34,0,0,0,7.24-4.85,21.69,21.69,0,0,0,4.66-7.35,25.47,25.47,0,0,0,1.64-9.22,26.5,26.5,0,0,0-.73-6.32A22.68,22.68,0,0,0,360.23,1162.12Zm-20.06,27.43a15.08,15.08,0,0,1-5.81-1.07,12.06,12.06,0,0,1-4.37-3,13.76,13.76,0,0,1-2.79-4.87,22.31,22.31,0,0,1,0-13.08,13.94,13.94,0,0,1,2.79-4.89,12.11,12.11,0,0,1,4.37-3.07,16.45,16.45,0,0,1,11.62,0,11.91,11.91,0,0,1,4.36,3.07,14.06,14.06,0,0,1,2.77,4.89,22.31,22.31,0,0,1,0,13.08,13.88,13.88,0,0,1-2.77,4.87,11.94,11.94,0,0,1-4.36,3A15,15,0,0,1,340.17,1189.55Z"/><path class="cls-3" d="M401.61,1185.61a1.84,1.84,0,0,0-.82.2,3,3,0,0,0-.71.48,12.58,12.58,0,0,1-2,1.54,12.09,12.09,0,0,1-2.15,1,13.09,13.09,0,0,1-2.5.57,21.57,21.57,0,0,1-3.05.19,13,13,0,0,1-5.23-1,12.17,12.17,0,0,1-4.22-3,14.62,14.62,0,0,1-2.85-4.88A19.47,19.47,0,0,1,377,1174a20.55,20.55,0,0,1,1-6.6,14.19,14.19,0,0,1,2.74-4.88,11.64,11.64,0,0,1,4.21-3,13.54,13.54,0,0,1,5.4-1,15.56,15.56,0,0,1,3.07.26,14.69,14.69,0,0,1,2.33.63,11.58,11.58,0,0,1,1.76.84l1.35.84a12.14,12.14,0,0,0,1.11.67,2.3,2.3,0,0,0,1.08.29,2.09,2.09,0,0,0,1.21-.32,2.89,2.89,0,0,0,.69-.71l2.92-4-.15-.15a21.16,21.16,0,0,0-6.55-4.27,22.48,22.48,0,0,0-8.79-1.63,23.48,23.48,0,0,0-9.09,1.71,20.9,20.9,0,0,0-7.07,4.78,21.61,21.61,0,0,0-4.59,7.32A26,26,0,0,0,368,1174a27.51,27.51,0,0,0,1.52,9.29,21,21,0,0,0,4.37,7.34,20.16,20.16,0,0,0,6.89,4.8,22.88,22.88,0,0,0,9.07,1.73,23.6,23.6,0,0,0,9.67-1.82,18.36,18.36,0,0,0,6.8-5.25l.14-.17-3.44-3.73A1.9,1.9,0,0,0,401.61,1185.61Z"/><path class="cls-3" d="M435.15,1175.3a8.45,8.45,0,0,0-1.62-1.8,6.32,6.32,0,0,0-1.43-.88,9.27,9.27,0,0,0,2.38-2.23l15.43-19h-7.72a5.45,5.45,0,0,0-2.25.41,4.81,4.81,0,0,0-1.73,1.46l-12.36,15.65a3.09,3.09,0,0,1-1.24,1,4.7,4.7,0,0,1-1.85.31h-1.71v-18.79h-8.84v45.33h8.84V1177h2.39a5.57,5.57,0,0,1,2.13.32,3.14,3.14,0,0,1,1.27,1.11l12.66,16.53a3.73,3.73,0,0,0,1.31,1.31,4.82,4.82,0,0,0,2.34.45H451Z"/></g></svg>